<svg width="21" height="15" viewBox="0 0 21 15" fill="none" xmlns="http://www.w3.org/2000/svg">
<path fill-rule="evenodd" clip-rule="evenodd" d="M18.0076 0.339996H3.65259C2.09929 0.339996 0.840088 1.5992 0.840088 3.1525V4.02127H20.8201V3.15249C20.8201 1.59919 19.5609 0.339996 18.0076 0.339996ZM0.840088 12.0075V5.70877H20.8201V12.0075C20.8201 13.5608 19.5609 14.82 18.0076 14.82H3.65259C2.09929 14.82 0.840088 13.5608 0.840088 12.0075ZM11.7383 9.45117C11.2723 9.45117 10.8945 9.82893 10.8945 10.2949C10.8945 10.7609 11.2723 11.1387 11.7383 11.1387H16.2792C16.7452 11.1387 17.1229 10.7609 17.1229 10.2949C17.1229 9.82893 16.7452 9.45117 16.2792 9.45117H11.7383Z" fill="#716E89"/>
</svg>
